<svg width="24" height="24" viewBox="0 0 24 24" fill="none" xmlns="http://www.w3.org/2000/svg">
<path d="M1.10138 0.75H2.15626V1.086C3.62477 1.4145 3.8359 2.77762 3.91877 3.2985C3.95815 3.54487 4.03802 4.02675 4.13702 4.617H22.5046C23.2314 4.617 23.3128 5.29612 23.2179 5.67188L21.0631 15.1845C20.9686 15.5603 20.5707 15.867 20.1807 15.867H4.07664C3.68889 15.867 3.37277 16.1824 3.37277 16.5701C3.37277 16.9579 3.68889 17.2733 4.07664 17.2733H21.6545C21.841 17.2733 22.0198 17.3473 22.1517 17.4792C22.2836 17.6111 22.3576 17.7899 22.3576 17.9764C22.3576 18.1629 22.2836 18.3417 22.1517 18.4736C22.0198 18.6054 21.841 18.6795 21.6545 18.6795H20.7433C21.1832 18.9224 21.55 19.2789 21.8054 19.7117C22.0608 20.1446 22.1954 20.638 22.1953 21.1406H21.4921C21.4921 22.305 20.5471 23.25 19.3827 23.25C18.2184 23.25 17.2734 22.305 17.2734 21.1406H16.5702C16.5701 20.638 16.7048 20.1446 16.9603 19.7117C17.2157 19.2788 17.5826 18.9224 18.0226 18.6795H8.0873C8.52733 18.9224 8.89418 19.2788 9.14962 19.7117C9.40507 20.1446 9.53977 20.638 9.53968 21.1406H8.83655C8.82613 21.6933 8.59927 22.2198 8.20475 22.6069C7.81023 22.9941 7.27954 23.211 6.72679 23.211C6.17403 23.211 5.64335 22.9941 5.24883 22.6069C4.8543 22.2198 4.62745 21.6933 4.61703 21.1406H3.91389C3.91385 20.6381 4.04852 20.1447 4.30389 19.7118C4.55926 19.279 4.92599 18.9225 5.3659 18.6795H4.0759C3.51654 18.6792 2.98018 18.4569 2.58466 18.0613C2.18914 17.6658 1.96681 17.1295 1.96651 16.5701C1.96656 16.2931 2.02118 16.0187 2.12725 15.7628C2.23332 15.5068 2.38876 15.2743 2.58471 15.0784C2.78065 14.8825 3.01326 14.7272 3.26925 14.6212C3.52523 14.5152 3.79959 14.4607 4.07664 14.4608H4.33802L3.43877 8.8695C3.18826 7.39275 2.64826 4.20262 2.52151 3.40912C2.45776 3.00825 2.39589 2.72662 2.15626 2.56875V2.859H1.10138C1.00834 2.8587 0.919197 2.82164 0.853376 2.75589C0.787554 2.69014 0.750397 2.60103 0.75 2.508V1.10175C0.750198 1.00859 0.78727 0.919288 0.853113 0.853376C0.918955 0.787464 1.00821 0.750297 1.10138 0.75ZM19.3827 22.1955C19.6624 22.1952 19.9306 22.084 20.1283 21.8862C20.3261 21.6884 20.4373 21.4203 20.4376 21.1406H18.3282C18.3285 21.4202 18.4397 21.6883 18.6374 21.8861C18.8351 22.0838 19.1031 22.1951 19.3827 22.1955ZM6.72641 22.1955C7.00616 22.1953 7.27439 22.0841 7.47224 21.8863C7.67009 21.6886 7.78137 21.4204 7.78167 21.1406H5.67153C5.67203 21.4202 5.78333 21.6883 5.98105 21.886C6.17877 22.0837 6.44679 22.195 6.72641 22.1955ZM7.59154 6.37275C7.57917 6.27744 7.53299 6.18974 7.46142 6.1256C7.38985 6.06146 7.29763 6.02514 7.20154 6.02325H4.97515C4.78165 6.02325 4.64702 6.17925 4.6774 6.37088L4.8979 7.785C4.92715 7.97625 5.11053 8.13263 5.3044 8.13263H7.42804C7.47276 8.13381 7.51721 8.12529 7.55832 8.10766C7.59943 8.09003 7.63624 8.06371 7.66621 8.0305C7.69618 7.99728 7.7186 7.95797 7.73193 7.91527C7.74525 7.87257 7.74918 7.82749 7.74342 7.78312L7.59154 6.37275ZM7.96992 9.88837C7.95732 9.79316 7.91108 9.70559 7.83956 9.6415C7.76803 9.5774 7.67594 9.541 7.57992 9.53888H5.52378C5.3299 9.53888 5.19565 9.69487 5.2249 9.8865L5.39103 10.9493C5.42065 11.1405 5.60365 11.2969 5.79753 11.2969H7.76892C7.8136 11.2979 7.85799 11.2893 7.89904 11.2717C7.94009 11.254 7.97684 11.2277 8.00679 11.1945C8.03673 11.1613 8.05916 11.122 8.07253 11.0794C8.08591 11.0367 8.08992 10.9917 8.0843 10.9474L7.96992 9.88837ZM21.4254 7.79138L21.7816 6.3645C21.8281 6.17625 21.7074 6.02325 21.5135 6.02325H18.8664C18.6721 6.02325 18.497 6.18037 18.4764 6.37275L18.3249 7.7835C18.3192 7.82781 18.3232 7.87281 18.3366 7.91542C18.35 7.95804 18.3723 7.99728 18.4022 8.03046C18.4321 8.06363 18.4689 8.08997 18.5099 8.10766C18.5509 8.12536 18.5952 8.134 18.6399 8.133H20.9878C21.1813 8.133 21.3785 7.97888 21.4254 7.79138ZM20.1987 11.2969C20.3922 11.2969 20.5895 11.1431 20.636 10.9556L20.9045 9.8805C20.9514 9.69225 20.8314 9.53925 20.6375 9.53925H18.4891C18.2952 9.53925 18.1197 9.69637 18.0991 9.88875L17.9851 10.9478C17.9794 10.9921 17.9834 11.0371 17.9967 11.0797C18.01 11.1224 18.0324 11.1616 18.0623 11.1948C18.0923 11.228 18.129 11.2544 18.17 11.272C18.2111 11.2897 18.2554 11.2983 18.3001 11.2972H20.1987V11.2969ZM17.9604 14.4611H19.4097C19.6044 14.4611 19.8005 14.3074 19.8474 14.1199L20.1159 13.0448C20.1624 12.8565 20.0424 12.7035 19.8481 12.7035H18.1494C17.9555 12.7035 17.78 12.8606 17.7586 13.053L17.6454 14.112C17.6397 14.1563 17.6436 14.2013 17.657 14.2439C17.6703 14.2866 17.6927 14.3258 17.7226 14.359C17.7525 14.3921 17.7893 14.4184 17.8303 14.4361C17.8713 14.4537 17.9157 14.4622 17.9604 14.4611ZM13.6508 14.1094C13.6512 14.2027 13.6885 14.292 13.7546 14.3579C13.8206 14.4238 13.91 14.4609 14.0033 14.4611H15.8375C15.9335 14.4591 16.0256 14.4228 16.0971 14.3587C16.1686 14.2945 16.2147 14.2069 16.2271 14.1116L16.3411 13.0526C16.3469 13.0083 16.3431 12.9633 16.3298 12.9206C16.3165 12.8779 16.2942 12.8386 16.2643 12.8054C16.2344 12.7722 16.1976 12.7459 16.1566 12.7282C16.1155 12.7105 16.0711 12.702 16.0265 12.7031H14.0033C13.91 12.7031 13.8204 12.7402 13.7543 12.8061C13.6883 12.872 13.651 12.9615 13.6508 13.0549V14.1094ZM13.6508 10.9455C13.6512 11.0388 13.6885 11.1281 13.7546 11.1941C13.8206 11.26 13.91 11.2971 14.0033 11.2972H16.1776C16.3711 11.2972 16.5458 11.1401 16.5676 10.9478L16.6809 9.88875C16.6866 9.84445 16.6827 9.79944 16.6694 9.75679C16.6561 9.71414 16.6338 9.67487 16.6039 9.64167C16.574 9.60847 16.5373 9.58213 16.4963 9.56445C16.4552 9.54677 16.4109 9.53818 16.3662 9.53925H14.0033C13.91 9.53925 13.8204 9.57629 13.7543 9.64223C13.6883 9.70817 13.651 9.79764 13.6508 9.891V10.9455ZM13.6508 7.78125C13.6512 7.87455 13.6885 7.9639 13.7546 8.0298C13.8206 8.0957 13.91 8.1328 14.0033 8.133H16.5166C16.6127 8.13111 16.7049 8.09479 16.7765 8.03065C16.8481 7.96651 16.8942 7.87881 16.9066 7.7835L17.0581 6.37275C17.0638 6.32843 17.0598 6.28341 17.0465 6.24076C17.0332 6.19811 17.0108 6.15885 16.9809 6.12566C16.9509 6.09247 16.9142 6.06613 16.8732 6.04846C16.8321 6.03078 16.7878 6.02218 16.7431 6.02325H14.003C13.9096 6.02325 13.8201 6.06029 13.754 6.12623C13.6879 6.19217 13.6507 6.28164 13.6505 6.375V7.78125H13.6508ZM9.84118 14.1116C9.85363 14.2069 9.89983 14.2946 9.97139 14.3587C10.0429 14.4228 10.1351 14.4592 10.2312 14.4611H11.8887C11.982 14.4609 12.0714 14.4238 12.1373 14.3579C12.2033 14.292 12.2405 14.2026 12.2408 14.1094V13.0545C12.2406 12.9612 12.2034 12.8718 12.1374 12.8059C12.0714 12.7399 11.982 12.7028 11.8887 12.7028H10.0422C9.84868 12.7028 9.70618 12.8599 9.72718 13.0522L9.84118 14.1116ZM9.50143 10.9474C9.51388 11.0427 9.56008 11.1303 9.63163 11.1944C9.70319 11.2586 9.79537 11.2949 9.89143 11.2969H11.8887C11.982 11.2967 12.0714 11.2596 12.1373 11.1937C12.2033 11.1277 12.2405 11.0384 12.2408 10.9451V9.89025C12.2406 9.79696 12.2034 9.70755 12.1374 9.64161C12.0714 9.57568 11.982 9.5386 11.8887 9.5385H9.70243C9.50856 9.5385 9.36643 9.69563 9.3878 9.888L9.50143 10.9474ZM9.16168 7.7835C9.17413 7.87878 9.22032 7.96643 9.29188 8.03056C9.36344 8.09468 9.45562 8.13103 9.55168 8.133H11.8887C11.982 8.1328 12.0714 8.09569 12.1373 8.02978C12.2033 7.96387 12.2405 7.87451 12.2408 7.78125V6.375C12.2406 6.28171 12.2034 6.1923 12.1374 6.12636C12.0714 6.06043 11.982 6.02335 11.8887 6.02325H9.3248C9.13093 6.02325 8.9888 6.18037 9.00943 6.37275L9.16168 7.7835ZM6.44966 14.4611V14.4585L6.45266 14.4611H8.10867C8.11955 14.4611 8.12892 14.4559 8.1398 14.4544C8.14167 14.4416 8.14167 14.4289 8.14392 14.4154L8.16042 14.4499C8.15585 14.4511 8.15122 14.4521 8.14655 14.4529C8.31942 14.433 8.44317 14.2901 8.4233 14.1116L8.31005 13.0526C8.29745 12.9574 8.25121 12.8698 8.17969 12.8057C8.10816 12.7416 8.01607 12.7052 7.92004 12.7031H6.01653C5.82266 12.7031 5.68916 12.8591 5.71841 13.0507L5.88453 14.1135C5.91341 14.3048 6.09641 14.4611 6.29029 14.4611H6.44966Z" fill="black" fill-opacity="0.75"/>
</svg>
