<svg width="24" height="24" viewBox="0 0 24 24" fill="none" xmlns="http://www.w3.org/2000/svg">
<path d="M2 8.40001C1.99988 7.68238 2.1428 6.97192 2.4204 6.31016C2.69801 5.6484 3.10474 5.0486 3.61681 4.54584C4.12889 4.04307 4.73604 3.64742 5.40279 3.382C6.06953 3.11658 6.78249 2.98672 7.5 3.00001C8.34896 2.9955 9.18919 3.17148 9.96499 3.51628C10.7408 3.86108 11.4345 4.36683 12 5.00001C12.5655 4.36683 13.2592 3.86108 14.035 3.51628C14.8108 3.17148 15.651 2.9955 16.5 3.00001C17.2175 2.98672 17.9305 3.11658 18.5972 3.382C19.264 3.64742 19.8711 4.04307 20.3832 4.54584C20.8953 5.0486 21.302 5.6484 21.5796 6.31016C21.8572 6.97192 22.0001 7.68238 22 8.40001C22 13.756 15.621 17.8 12 21C8.387 17.773 2 13.76 2 8.40001Z" fill="#FF0000"/>
</svg>
